<mxfile host="app.diagrams.net" modified="2022-08-16T11:29:02.300Z" agent="5.0 (Macintosh; Intel Mac OS X 10_15_7) AppleWebKit/537.36 (KHTML, like Gecko) Chrome/104.0.0.0 Safari/537.36" etag="t2Og4SML57tnC31lpfM7" version="18.0.1" type="github">
  <diagram id="mJX3ixT3rx15vAFLiFQs" name="第 1 页">
    <mxGraphModel dx="4502" dy="1116" grid="1" gridSize="10" guides="1" tooltips="1" connect="1" arrows="1" fold="1" page="1" pageScale="1" pageWidth="1200" pageHeight="1600" math="0" shadow="0">
      <root>
        <mxCell id="0" />
        <mxCell id="1" parent="0" />
        <mxCell id="pdx5beCU5PoqxW-JAkxX-39" value="" style="rounded=0;whiteSpace=wrap;html=1;shadow=0;glass=0;sketch=0;fontSize=32;fillColor=#FAFAFA;strokeColor=none;" parent="1" vertex="1">
          <mxGeometry x="-2310" y="300" width="1830" height="1340" as="geometry" />
        </mxCell>
        <mxCell id="pdx5beCU5PoqxW-JAkxX-1" value="" style="rounded=1;whiteSpace=wrap;html=1;fillColor=#21C0A5;fontColor=#5C5C5C;strokeColor=#006658;glass=0;" parent="1" vertex="1">
          <mxGeometry x="-2190" y="600" width="490" height="330" as="geometry" />
        </mxCell>
        <mxCell id="pdx5beCU5PoqxW-JAkxX-3" value="&lt;font style=&quot;font-size: 32px;&quot;&gt;UI Components&lt;br&gt;&lt;/font&gt;" style="text;html=1;strokeColor=none;fillColor=none;align=center;verticalAlign=middle;whiteSpace=wrap;rounded=0;sketch=0;fontColor=#5C5C5C;" parent="1" vertex="1">
          <mxGeometry x="-2110" y="950" width="350" height="30" as="geometry" />
        </mxCell>
        <mxCell id="pdx5beCU5PoqxW-JAkxX-10" value="" style="rounded=1;whiteSpace=wrap;html=1;fillColor=#b0e3e6;strokeColor=#0e8088;shadow=0;sketch=0;glass=0;" parent="1" vertex="1">
          <mxGeometry x="-1520" y="600" width="890" height="330" as="geometry" />
        </mxCell>
        <mxCell id="pdx5beCU5PoqxW-JAkxX-11" value="&lt;font style=&quot;font-size: 32px;&quot;&gt;Low Code Creator&lt;br&gt;&lt;/font&gt;" style="text;html=1;strokeColor=none;fillColor=none;align=center;verticalAlign=middle;whiteSpace=wrap;rounded=0;sketch=0;fontColor=#5C5C5C;" parent="1" vertex="1">
          <mxGeometry x="-1250" y="950" width="350" height="30" as="geometry" />
        </mxCell>
        <mxCell id="pdx5beCU5PoqxW-JAkxX-13" value="&lt;font color=&quot;#ffffff&quot; style=&quot;font-size: 32px;&quot;&gt;物料&lt;/font&gt;" style="html=1;whiteSpace=wrap;container=1;recursiveResize=0;collapsible=0;rounded=1;shadow=0;glass=0;sketch=0;fontColor=#5C5C5C;strokeColor=#006658;fillColor=#21C0A5;" parent="1" vertex="1">
          <mxGeometry x="-1690" y="700" width="160" height="70" as="geometry" />
        </mxCell>
        <mxCell id="pdx5beCU5PoqxW-JAkxX-17" value="" style="shape=flexArrow;endArrow=classic;html=1;rounded=1;sketch=0;fontSize=32;fontColor=#5C5C5C;strokeColor=#10739e;fillColor=#b1ddf0;curved=0;" parent="1" edge="1">
          <mxGeometry width="50" height="50" relative="1" as="geometry">
            <mxPoint x="-1688" y="680" as="sourcePoint" />
            <mxPoint x="-1528" y="680" as="targetPoint" />
          </mxGeometry>
        </mxCell>
        <mxCell id="pdx5beCU5PoqxW-JAkxX-18" value="" style="group;strokeColor=#7EA6E0;dashed=1;strokeWidth=1;" parent="1" vertex="1" connectable="0">
          <mxGeometry x="-2040" y="650" width="300" height="70" as="geometry" />
        </mxCell>
        <mxCell id="pdx5beCU5PoqxW-JAkxX-4" value="" style="rounded=1;whiteSpace=wrap;html=1;sketch=0;fontSize=32;" parent="pdx5beCU5PoqxW-JAkxX-18" vertex="1">
          <mxGeometry width="300" height="70" as="geometry" />
        </mxCell>
        <mxCell id="pdx5beCU5PoqxW-JAkxX-5" value="&lt;font style=&quot;font-size: 28px;&quot;&gt;基于搭建协议的组件&lt;/font&gt;" style="text;html=1;strokeColor=none;fillColor=none;align=center;verticalAlign=middle;whiteSpace=wrap;rounded=0;sketch=0;fontSize=32;fontColor=#5C5C5C;" parent="pdx5beCU5PoqxW-JAkxX-18" vertex="1">
          <mxGeometry x="10" y="25" width="290" height="20" as="geometry" />
        </mxCell>
        <mxCell id="pdx5beCU5PoqxW-JAkxX-8" style="edgeStyle=orthogonalEdgeStyle;curved=0;rounded=1;sketch=0;orthogonalLoop=1;jettySize=auto;html=1;exitX=0.5;exitY=1;exitDx=0;exitDy=0;fontSize=28;fontColor=#5C5C5C;strokeColor=#006658;fillColor=#21C0A5;" parent="pdx5beCU5PoqxW-JAkxX-18" source="pdx5beCU5PoqxW-JAkxX-5" target="pdx5beCU5PoqxW-JAkxX-5" edge="1">
          <mxGeometry relative="1" as="geometry" />
        </mxCell>
        <mxCell id="pdx5beCU5PoqxW-JAkxX-20" value="" style="group" parent="1" vertex="1" connectable="0">
          <mxGeometry x="-2040" y="790" width="300" height="70" as="geometry" />
        </mxCell>
        <mxCell id="pdx5beCU5PoqxW-JAkxX-6" value="" style="rounded=1;whiteSpace=wrap;html=1;sketch=0;fontSize=32;" parent="pdx5beCU5PoqxW-JAkxX-20" vertex="1">
          <mxGeometry width="300" height="70" as="geometry" />
        </mxCell>
        <mxCell id="pdx5beCU5PoqxW-JAkxX-7" value="&lt;font style=&quot;font-size: 21px;&quot;&gt;夸克统一规范的组件(目前)&lt;/font&gt;" style="text;html=1;strokeColor=none;fillColor=none;align=center;verticalAlign=middle;whiteSpace=wrap;rounded=0;sketch=0;fontSize=32;fontColor=#5C5C5C;" parent="pdx5beCU5PoqxW-JAkxX-20" vertex="1">
          <mxGeometry x="30" y="24" width="250" height="20" as="geometry" />
        </mxCell>
        <mxCell id="pdx5beCU5PoqxW-JAkxX-21" value="&lt;font color=&quot;#67ab9f&quot;&gt;主题&lt;br&gt;&lt;br&gt;复用&lt;/font&gt;" style="rounded=1;whiteSpace=wrap;html=1;shadow=0;glass=0;sketch=0;fontSize=32;strokeColor=none;fillColor=#b0e3e6;" parent="1" vertex="1">
          <mxGeometry x="-2170" y="620" width="120" height="290" as="geometry" />
        </mxCell>
        <mxCell id="pdx5beCU5PoqxW-JAkxX-22" value="&lt;font color=&quot;#ffffff&quot;&gt;搭建协议&lt;br&gt;入料&lt;/font&gt;" style="rounded=1;whiteSpace=wrap;html=1;shadow=0;glass=0;sketch=0;fontSize=32;fontColor=#3399FF;strokeColor=#006658;fillColor=#21C0A5;" parent="1" vertex="1">
          <mxGeometry x="-1460" y="630" width="190" height="270" as="geometry" />
        </mxCell>
        <mxCell id="pdx5beCU5PoqxW-JAkxX-24" value="&lt;font color=&quot;#ffffff&quot;&gt;出码&lt;/font&gt;" style="rounded=1;whiteSpace=wrap;html=1;shadow=0;glass=0;sketch=0;fontSize=32;fontColor=#3399FF;strokeColor=#006658;fillColor=#21C0A5;" parent="1" vertex="1">
          <mxGeometry x="-890" y="630" width="190" height="270" as="geometry" />
        </mxCell>
        <mxCell id="pdx5beCU5PoqxW-JAkxX-25" value="&lt;span style=&quot;color: rgb(255, 255, 255);&quot;&gt;编排&lt;br&gt;&lt;/span&gt;&lt;span style=&quot;color: rgb(255, 255, 255);&quot;&gt;搭建&lt;/span&gt;&lt;span style=&quot;color: rgb(255, 255, 255);&quot;&gt;&lt;br&gt;&lt;/span&gt;" style="rounded=1;whiteSpace=wrap;html=1;shadow=0;glass=0;sketch=0;fontSize=32;fontColor=#3399FF;strokeColor=#006658;fillColor=#21C0A5;gradientColor=none;" parent="1" vertex="1">
          <mxGeometry x="-1230" y="630" width="300" height="270" as="geometry" />
        </mxCell>
        <mxCell id="pdx5beCU5PoqxW-JAkxX-29" value="&lt;font color=&quot;#ffffff&quot;&gt;搭建平台创建sc脚手架、创建单个路径模块&lt;/font&gt;" style="rounded=1;whiteSpace=wrap;html=1;shadow=0;glass=0;sketch=0;fontSize=32;fontColor=#333333;strokeColor=#006658;fillColor=#3399FF;" parent="1" vertex="1">
          <mxGeometry x="-2190" y="450" width="1560" height="90" as="geometry" />
        </mxCell>
        <mxCell id="pdx5beCU5PoqxW-JAkxX-30" value="SC - SSR渲染服务" style="rounded=1;whiteSpace=wrap;html=1;shadow=0;glass=0;sketch=0;fontSize=32;fontColor=#ffffff;strokeColor=#006EAF;fillColor=#1ba1e2;" parent="1" vertex="1">
          <mxGeometry x="-2190" y="1420" width="650" height="90" as="geometry" />
        </mxCell>
        <mxCell id="pdx5beCU5PoqxW-JAkxX-36" value="" style="shape=flexArrow;endArrow=classic;html=1;rounded=1;sketch=0;fontSize=32;fontColor=#FFFFFF;strokeColor=#006658;fillColor=#21C0A5;curved=0;" parent="1" edge="1">
          <mxGeometry width="50" height="50" relative="1" as="geometry">
            <mxPoint x="-1370" y="550" as="sourcePoint" />
            <mxPoint x="-1370" y="590" as="targetPoint" />
          </mxGeometry>
        </mxCell>
        <mxCell id="B-S9CMbMQOT2F2IH9uXc-1" value="推送远程搭建仓库" style="rounded=1;whiteSpace=wrap;html=1;shadow=0;glass=0;sketch=0;fontSize=32;fontColor=#ffffff;strokeColor=#006EAF;fillColor=#1ba1e2;" vertex="1" parent="1">
          <mxGeometry x="-2190" y="1070" width="1560" height="90" as="geometry" />
        </mxCell>
        <mxCell id="B-S9CMbMQOT2F2IH9uXc-2" value="sc部署服务同步git搭建仓库代码" style="rounded=1;whiteSpace=wrap;html=1;shadow=0;glass=0;sketch=0;fontSize=32;fontColor=#ffffff;strokeColor=#006EAF;fillColor=#1ba1e2;" vertex="1" parent="1">
          <mxGeometry x="-2180" y="1250" width="650" height="90" as="geometry" />
        </mxCell>
        <mxCell id="B-S9CMbMQOT2F2IH9uXc-6" value="" style="shape=singleArrow;whiteSpace=wrap;html=1;arrowWidth=0.4;arrowSize=0.4;fontSize=32;fillColor=#1ba1e2;strokeColor=#006EAF;fontColor=#ffffff;rounded=1;shadow=0;glass=0;sketch=0;direction=south;" vertex="1" parent="1">
          <mxGeometry x="-1900" y="1178" width="45" height="60" as="geometry" />
        </mxCell>
        <mxCell id="B-S9CMbMQOT2F2IH9uXc-11" value="" style="shape=singleArrow;whiteSpace=wrap;html=1;arrowWidth=0.4;arrowSize=0.4;fontSize=32;fillColor=#1ba1e2;strokeColor=#006EAF;fontColor=#ffffff;rounded=1;shadow=0;glass=0;sketch=0;direction=south;" vertex="1" parent="1">
          <mxGeometry x="-1900" y="1350" width="45" height="60" as="geometry" />
        </mxCell>
        <mxCell id="B-S9CMbMQOT2F2IH9uXc-12" value="" style="shape=singleArrow;whiteSpace=wrap;html=1;arrowWidth=0.4;arrowSize=0.4;fontSize=32;fillColor=#1ba1e2;strokeColor=#006EAF;fontColor=#ffffff;rounded=1;shadow=0;glass=0;sketch=0;direction=south;" vertex="1" parent="1">
          <mxGeometry x="-817.5" y="950" width="45" height="100" as="geometry" />
        </mxCell>
        <mxCell id="B-S9CMbMQOT2F2IH9uXc-14" value="发布npm" style="rounded=1;whiteSpace=wrap;html=1;shadow=0;glass=0;sketch=0;fontSize=32;fontColor=#ffffff;strokeColor=#006EAF;fillColor=#1ba1e2;" vertex="1" parent="1">
          <mxGeometry x="-1280" y="1250" width="650" height="90" as="geometry" />
        </mxCell>
        <mxCell id="B-S9CMbMQOT2F2IH9uXc-15" value="" style="shape=singleArrow;whiteSpace=wrap;html=1;arrowWidth=0.4;arrowSize=0.4;fontSize=32;fillColor=#1ba1e2;strokeColor=#006EAF;fontColor=#ffffff;rounded=1;shadow=0;glass=0;sketch=0;direction=south;" vertex="1" parent="1">
          <mxGeometry x="-975" y="1178" width="45" height="60" as="geometry" />
        </mxCell>
        <mxCell id="B-S9CMbMQOT2F2IH9uXc-17" value="OC模块" style="rounded=1;whiteSpace=wrap;html=1;shadow=0;glass=0;sketch=0;fontSize=32;fontColor=#ffffff;strokeColor=#006EAF;fillColor=#1ba1e2;" vertex="1" parent="1">
          <mxGeometry x="-1277.5" y="1420" width="650" height="90" as="geometry" />
        </mxCell>
        <mxCell id="B-S9CMbMQOT2F2IH9uXc-18" value="" style="shape=singleArrow;whiteSpace=wrap;html=1;arrowWidth=0.4;arrowSize=0.4;fontSize=32;fillColor=#1ba1e2;strokeColor=#006EAF;fontColor=#ffffff;rounded=1;shadow=0;glass=0;sketch=0;direction=south;" vertex="1" parent="1">
          <mxGeometry x="-975" y="1350" width="45" height="60" as="geometry" />
        </mxCell>
      </root>
    </mxGraphModel>
  </diagram>
</mxfile>
